{
	"asset":{
		"generator":"Khronos glTF Blender I/O v4.3.47",
		"version":"2.0"
	},
	"scene":0,
	"scenes":[
		{
			"name":"Scene",
			"nodes":[
				0
			]
		}
	],
	"nodes":[
		{
			"mesh":0,
			"name":"Cube.002"
		}
	],
	"materials":[
		{
			"doubleSided":true,
			"name":"Material.003",
			"pbrMetallicRoughness":{
				"baseColorFactor":[
					0.760519802570343,
					0.6724438667297363,
					0.4232678711414337,
					1
				],
				"metallicFactor":0,
				"roughnessFactor":0.5
			}
		},
		{
			"doubleSided":true,
			"name":"Material.008",
			"pbrMetallicRoughness":{
				"baseColorFactor":[
					0.003035235218703747,
					0.012983044609427452,
					0.012286491692066193,
					1
				],
				"metallicFactor":0,
				"roughnessFactor":0.5
			}
		},
		{
			"doubleSided":true,
			"name":"Material",
			"pbrMetallicRoughness":{
				"baseColorFactor":[
					0.0006065001944079995,
					0.1559264361858368,
					0.6653876304626465,
					1
				],
				"metallicFactor":0,
				"roughnessFactor":0.5
			}
		},
		{
			"doubleSided":true,
			"name":"Material.004",
			"pbrMetallicRoughness":{
				"metallicFactor":0,
				"roughnessFactor":0.5
			}
		},
		{
			"doubleSided":true,
			"name":"Material.007",
			"pbrMetallicRoughness":{
				"baseColorFactor":[
					0.5332737565040588,
					0.0033464645966887474,
					0.027320897206664085,
					1
				],
				"metallicFactor":0,
				"roughnessFactor":0.5
			}
		},
		{
			"doubleSided":true,
			"name":"Material.005",
			"pbrMetallicRoughness":{
				"baseColorFactor":[
					0,
					0.10224184393882751,
					0.01032984722405672,
					1
				],
				"metallicFactor":0,
				"roughnessFactor":0.5
			}
		},
		{
			"doubleSided":true,
			"name":"Material.006",
			"pbrMetallicRoughness":{
				"baseColorFactor":[
					0.7083722949028015,
					0.004024623427540064,
					0.03433983772993088,
					1
				],
				"metallicFactor":0,
				"roughnessFactor":0.5
			}
		},
		{
			"doubleSided":true,
			"name":"Material.009",
			"pbrMetallicRoughness":{
				"baseColorFactor":[
					0.31854474544525146,
					0.3185471296310425,
					0.31854698061943054,
					1
				],
				"metallicFactor":0,
				"roughnessFactor":0.5
			}
		},
		{
			"doubleSided":true,
			"name":"Material.002",
			"pbrMetallicRoughness":{
				"baseColorFactor":[
					0,
					0,
					0,
					1
				],
				"metallicFactor":0,
				"roughnessFactor":0.5
			}
		}
	],
	"meshes":[
		{
			"name":"Cube.002",
			"primitives":[
				{
					"attributes":{
						"POSITION":0,
						"NORMAL":1,
						"TEXCOORD_0":2
					},
					"indices":3,
					"material":0
				},
				{
					"attributes":{
						"POSITION":4,
						"NORMAL":5,
						"TEXCOORD_0":6
					},
					"indices":7,
					"material":1
				},
				{
					"attributes":{
						"POSITION":8,
						"NORMAL":9,
						"TEXCOORD_0":10
					},
					"indices":11,
					"material":2
				},
				{
					"attributes":{
						"POSITION":12,
						"NORMAL":13,
						"TEXCOORD_0":14
					},
					"indices":15,
					"material":3
				},
				{
					"attributes":{
						"POSITION":16,
						"NORMAL":17,
						"TEXCOORD_0":18
					},
					"indices":19,
					"material":4
				},
				{
					"attributes":{
						"POSITION":20,
						"NORMAL":21,
						"TEXCOORD_0":22
					},
					"indices":23,
					"material":5
				},
				{
					"attributes":{
						"POSITION":24,
						"NORMAL":25,
						"TEXCOORD_0":26
					},
					"indices":27,
					"material":6
				},
				{
					"attributes":{
						"POSITION":28,
						"NORMAL":29,
						"TEXCOORD_0":30
					},
					"indices":31,
					"material":7
				},
				{
					"attributes":{
						"POSITION":32,
						"NORMAL":33,
						"TEXCOORD_0":34
					},
					"indices":35,
					"material":8
				}
			]
		}
	],
	"accessors":[
		{
			"bufferView":0,
			"componentType":5126,
			"count":12673,
			"max":[
				39.163047790527344,
				-2.999894142150879,
				-47.407379150390625
			],
			"min":[
				-40.83599853515625,
				-28.472984313964844,
				-238.84942626953125
			],
			"type":"VEC3"
		},
		{
			"bufferView":1,
			"componentType":5126,
			"count":12673,
			"type":"VEC3"
		},
		{
			"bufferView":2,
			"componentType":5126,
			"count":12673,
			"type":"VEC2"
		},
		{
			"bufferView":3,
			"componentType":5123,
			"count":37035,
			"type":"SCALAR"
		},
		{
			"bufferView":4,
			"componentType":5126,
			"count":2527,
			"max":[
				22.627010345458984,
				30.000022888183594,
				-44.67535400390625
			],
			"min":[
				-23.83321762084961,
				8.999996185302734,
				-251.03134155273438
			],
			"type":"VEC3"
		},
		{
			"bufferView":5,
			"componentType":5126,
			"count":2527,
			"type":"VEC3"
		},
		{
			"bufferView":6,
			"componentType":5126,
			"count":2527,
			"type":"VEC2"
		},
		{
			"bufferView":7,
			"componentType":5123,
			"count":5748,
			"type":"SCALAR"
		},
		{
			"bufferView":8,
			"componentType":5126,
			"count":157239,
			"max":[
				119.16215515136719,
				94.00473022460938,
				-11.675765991210938
			],
			"min":[
				-120.91278076171875,
				-10.000024795532227,
				-379.707763671875
			],
			"type":"VEC3"
		},
		{
			"bufferView":9,
			"componentType":5126,
			"count":157239,
			"type":"VEC3"
		},
		{
			"bufferView":10,
			"componentType":5126,
			"count":157239,
			"type":"VEC2"
		},
		{
			"bufferView":11,
			"componentType":5125,
			"count":411189,
			"type":"SCALAR"
		},
		{
			"bufferView":12,
			"componentType":5126,
			"count":267730,
			"max":[
				190.5112762451172,
				90.70413208007812,
				-11.67572021484375
			],
			"min":[
				-192.4953155517578,
				-12.999987602233887,
				-379.9799499511719
			],
			"type":"VEC3"
		},
		{
			"bufferView":13,
			"componentType":5126,
			"count":267730,
			"type":"VEC3"
		},
		{
			"bufferView":14,
			"componentType":5126,
			"count":267730,
			"type":"VEC2"
		},
		{
			"bufferView":15,
			"componentType":5125,
			"count":694860,
			"type":"SCALAR"
		},
		{
			"bufferView":16,
			"componentType":5126,
			"count":1657,
			"max":[
				7.90233039855957,
				96.50437927246094,
				-68.63623046875
			],
			"min":[
				-8.17525863647461,
				-12.499988555908203,
				-379.6712646484375
			],
			"type":"VEC3"
		},
		{
			"bufferView":17,
			"componentType":5126,
			"count":1657,
			"type":"VEC3"
		},
		{
			"bufferView":18,
			"componentType":5126,
			"count":1657,
			"type":"VEC2"
		},
		{
			"bufferView":19,
			"componentType":5123,
			"count":4470,
			"type":"SCALAR"
		},
		{
			"bufferView":20,
			"componentType":5126,
			"count":484,
			"max":[
				-182.5764923095703,
				30.539447784423828,
				-247.7706298828125
			],
			"min":[
				-189.82423400878906,
				23.29159927368164,
				-255.7739715576172
			],
			"type":"VEC3"
		},
		{
			"bufferView":21,
			"componentType":5126,
			"count":484,
			"type":"VEC3"
		},
		{
			"bufferView":22,
			"componentType":5126,
			"count":484,
			"type":"VEC2"
		},
		{
			"bufferView":23,
			"componentType":5123,
			"count":1404,
			"type":"SCALAR"
		},
		{
			"bufferView":24,
			"componentType":5126,
			"count":484,
			"max":[
				187.84022521972656,
				30.539451599121094,
				-249.5669403076172
			],
			"min":[
				180.5924530029297,
				23.291606903076172,
				-257.5702819824219
			],
			"type":"VEC3"
		},
		{
			"bufferView":25,
			"componentType":5126,
			"count":484,
			"type":"VEC3"
		},
		{
			"bufferView":26,
			"componentType":5126,
			"count":484,
			"type":"VEC2"
		},
		{
			"bufferView":27,
			"componentType":5123,
			"count":1404,
			"type":"SCALAR"
		},
		{
			"bufferView":28,
			"componentType":5126,
			"count":5140,
			"max":[
				53.93000030517578,
				31.285152435302734,
				-251.94313049316406
			],
			"min":[
				-56.14728546142578,
				5.9999847412109375,
				-316.9017028808594
			],
			"type":"VEC3"
		},
		{
			"bufferView":29,
			"componentType":5126,
			"count":5140,
			"type":"VEC3"
		},
		{
			"bufferView":30,
			"componentType":5126,
			"count":5140,
			"type":"VEC2"
		},
		{
			"bufferView":31,
			"componentType":5123,
			"count":11292,
			"type":"SCALAR"
		},
		{
			"bufferView":32,
			"componentType":5126,
			"count":10819,
			"max":[
				37.11244201660156,
				-13.82913875579834,
				-52.84222412109375
			],
			"min":[
				-38.78642272949219,
				-32.47813034057617,
				-242.855224609375
			],
			"type":"VEC3"
		},
		{
			"bufferView":33,
			"componentType":5126,
			"count":10819,
			"type":"VEC3"
		},
		{
			"bufferView":34,
			"componentType":5126,
			"count":10819,
			"type":"VEC2"
		},
		{
			"bufferView":35,
			"componentType":5123,
			"count":37002,
			"type":"SCALAR"
		}
	],
	"bufferViews":[
		{
			"buffer":0,
			"byteLength":152076,
			"byteOffset":0,
			"target":34962
		},
		{
			"buffer":0,
			"byteLength":152076,
			"byteOffset":152076,
			"target":34962
		},
		{
			"buffer":0,
			"byteLength":101384,
			"byteOffset":304152,
			"target":34962
		},
		{
			"buffer":0,
			"byteLength":74070,
			"byteOffset":405536,
			"target":34963
		},
		{
			"buffer":0,
			"byteLength":30324,
			"byteOffset":479608,
			"target":34962
		},
		{
			"buffer":0,
			"byteLength":30324,
			"byteOffset":509932,
			"target":34962
		},
		{
			"buffer":0,
			"byteLength":20216,
			"byteOffset":540256,
			"target":34962
		},
		{
			"buffer":0,
			"byteLength":11496,
			"byteOffset":560472,
			"target":34963
		},
		{
			"buffer":0,
			"byteLength":1886868,
			"byteOffset":571968,
			"target":34962
		},
		{
			"buffer":0,
			"byteLength":1886868,
			"byteOffset":2458836,
			"target":34962
		},
		{
			"buffer":0,
			"byteLength":1257912,
			"byteOffset":4345704,
			"target":34962
		},
		{
			"buffer":0,
			"byteLength":1644756,
			"byteOffset":5603616,
			"target":34963
		},
		{
			"buffer":0,
			"byteLength":3212760,
			"byteOffset":7248372,
			"target":34962
		},
		{
			"buffer":0,
			"byteLength":3212760,
			"byteOffset":10461132,
			"target":34962
		},
		{
			"buffer":0,
			"byteLength":2141840,
			"byteOffset":13673892,
			"target":34962
		},
		{
			"buffer":0,
			"byteLength":2779440,
			"byteOffset":15815732,
			"target":34963
		},
		{
			"buffer":0,
			"byteLength":19884,
			"byteOffset":18595172,
			"target":34962
		},
		{
			"buffer":0,
			"byteLength":19884,
			"byteOffset":18615056,
			"target":34962
		},
		{
			"buffer":0,
			"byteLength":13256,
			"byteOffset":18634940,
			"target":34962
		},
		{
			"buffer":0,
			"byteLength":8940,
			"byteOffset":18648196,
			"target":34963
		},
		{
			"buffer":0,
			"byteLength":5808,
			"byteOffset":18657136,
			"target":34962
		},
		{
			"buffer":0,
			"byteLength":5808,
			"byteOffset":18662944,
			"target":34962
		},
		{
			"buffer":0,
			"byteLength":3872,
			"byteOffset":18668752,
			"target":34962
		},
		{
			"buffer":0,
			"byteLength":2808,
			"byteOffset":18672624,
			"target":34963
		},
		{
			"buffer":0,
			"byteLength":5808,
			"byteOffset":18675432,
			"target":34962
		},
		{
			"buffer":0,
			"byteLength":5808,
			"byteOffset":18681240,
			"target":34962
		},
		{
			"buffer":0,
			"byteLength":3872,
			"byteOffset":18687048,
			"target":34962
		},
		{
			"buffer":0,
			"byteLength":2808,
			"byteOffset":18690920,
			"target":34963
		},
		{
			"buffer":0,
			"byteLength":61680,
			"byteOffset":18693728,
			"target":34962
		},
		{
			"buffer":0,
			"byteLength":61680,
			"byteOffset":18755408,
			"target":34962
		},
		{
			"buffer":0,
			"byteLength":41120,
			"byteOffset":18817088,
			"target":34962
		},
		{
			"buffer":0,
			"byteLength":22584,
			"byteOffset":18858208,
			"target":34963
		},
		{
			"buffer":0,
			"byteLength":129828,
			"byteOffset":18880792,
			"target":34962
		},
		{
			"buffer":0,
			"byteLength":129828,
			"byteOffset":19010620,
			"target":34962
		},
		{
			"buffer":0,
			"byteLength":86552,
			"byteOffset":19140448,
			"target":34962
		},
		{
			"buffer":0,
			"byteLength":74004,
			"byteOffset":19227000,
			"target":34963
		}
	],
	"buffers":[
		{
			"byteLength":19301004,
			"uri":"scene.bin"
		}
	]
}
